<svg width="40" height="40" viewBox="0 0 40 40" fill="none" xmlns="http://www.w3.org/2000/svg">
  <!-- Background circle -->
  <circle cx="20" cy="20" r="18" fill="#0F4C81" stroke="#F5A623" stroke-width="2"/>
  
  <!-- Date palm tree silhouette -->
  <g transform="translate(20, 20)">
    <!-- Trunk -->
    <rect x="-1" y="5" width="2" height="10" fill="#F5A623" rx="1"/>
    
    <!-- Palm fronds -->
    <path d="M0 8 C-8 2, -12 -2, -10 -8 C-6 -6, -2 0, 0 8" fill="#F5A623"/>
    <path d="M0 8 C8 2, 12 -2, 10 -8 C6 -6, 2 0, 0 8" fill="#F5A623"/>
    <path d="M0 8 C-6 -2, -8 -8, -4 -12 C-2 -8, 0 -2, 0 8" fill="#F5A623"/>
    <path d="M0 8 C6 -2, 8 -8, 4 -12 C2 -8, 0 -2, 0 8" fill="#F5A623"/>
    
    <!-- Dates (small circles) -->
    <circle cx="-6" cy="2" r="1.5" fill="#8B4513"/>
    <circle cx="6" cy="1" r="1.5" fill="#8B4513"/>
    <circle cx="-3" cy="-2" r="1.5" fill="#8B4513"/>
    <circle cx="4" cy="-1" r="1.5" fill="#8B4513"/>
  </g>
  
  <!-- Company initial 'Q' -->
  <text x="20" y="32" text-anchor="middle" fill="white" font-family="Arial, sans-serif" font-size="8" font-weight="bold">Q</text>
</svg>