<svg width="580" height="118" viewBox="0 0 580 118" fill="none" xmlns="http://www.w3.org/2000/svg">
<path d="M193.679 50.5475C193.679 51.1151 193.661 51.5886 193.625 51.9682C193.607 52.3478 193.553 52.6874 193.463 52.987C193.391 53.2866 193.265 53.5642 193.085 53.8198C192.923 54.0574 192.689 54.309 192.383 54.5746C190.219 52.4657 187.479 51.411 184.163 51.4107C181.497 51.4103 179.137 52.0582 177.083 53.3538C175.029 54.6314 173.371 56.4167 172.109 58.7098C170.847 60.985 170.216 63.6582 170.216 66.7294C170.216 69.8007 170.847 72.4919 172.109 74.8028C173.389 77.096 175.056 78.8816 177.11 80.1594C179.164 81.4192 181.515 82.049 184.163 82.049C187.479 82.049 190.219 80.9943 192.383 78.8854C192.689 79.151 192.923 79.4026 193.085 79.6402C193.265 79.8958 193.391 80.1734 193.463 80.473C193.553 80.7546 193.607 81.0762 193.625 81.4378C193.661 81.7814 193.679 82.2189 193.679 82.7505V83.561C191.371 85.2743 188.719 86.131 185.723 86.131C181.695 86.131 178.163 85.1822 175.127 83.2846C172.091 81.369 169.775 78.7318 168.179 75.373C166.583 72.0142 165.785 68.146 165.785 63.7686C165.785 59.3911 166.583 55.5229 168.179 52.1641C169.775 48.8053 172.091 46.1861 175.127 44.3065C178.163 42.4089 181.695 41.46 185.723 41.46C188.719 41.46 191.371 42.3167 193.679 44.03V50.5475Z" fill="#8B4513"/>
<path d="M248.427 86.131C244.399 86.131 240.867 85.1822 237.831 83.2846C234.795 81.369 232.479 78.7318 230.883 75.373C229.287 72.0142 228.489 68.146 228.489 63.7686C228.489 59.3911 229.287 55.5229 230.883 52.1641C232.479 48.8053 234.795 46.1861 237.831 44.3065C240.867 42.4089 244.399 41.46 248.427 41.46C252.455 41.46 255.987 42.4089 259.023 44.3065C262.059 46.1861 264.375 48.8053 265.971 52.1641C267.567 55.5229 268.365 59.3911 268.365 63.7686C268.365 68.146 267.567 72.0142 265.971 75.373C264.375 78.7318 262.059 81.369 259.023 83.2846C255.987 85.1822 252.455 86.131 248.427 86.131ZM248.427 82.049C251.075 82.049 253.426 81.4192 255.48 80.1594C257.534 78.8816 259.201 77.096 260.481 74.8028C261.761 72.4919 262.401 69.8007 262.401 66.7294C262.401 63.6582 261.761 60.985 260.481 58.7098C259.201 56.4167 257.534 54.6314 255.48 53.3538C253.426 52.0582 251.075 51.4103 248.427 51.411C245.779 51.4107 243.428 52.0586 241.374 53.3538C239.32 54.6314 237.653 56.4167 236.373 58.7098C235.093 60.985 234.453 63.6582 234.453 66.7294C234.453 69.8007 235.093 72.4919 236.373 74.8028C237.653 77.096 239.32 78.8816 241.374 80.1594C243.428 81.4192 245.779 82.049 248.427 82.049Z" fill="#8B4513"/>
<path d="M308.155 86.131C306.577 86.131 305.125 85.9214 303.799 85.5022C302.473 85.083 301.381 84.4182 300.523 83.5078C299.683 82.5794 299.263 81.3376 299.263 79.7826V50.5474H285.211C284.515 50.5474 283.909 50.3018 283.393 49.8106C282.877 49.3014 282.619 48.7158 282.619 48.0537V42.4089H299.263V34.2137C299.263 33.5516 299.521 32.966 300.037 32.4568C300.571 31.9476 301.177 31.693 301.855 31.693H307.123V42.4089H325.519C326.197 42.4089 326.803 42.6546 327.337 43.146C327.889 43.6374 328.165 44.223 328.165 44.9029V50.5474H307.123V79.6401C307.123 80.1495 307.273 80.5651 307.573 80.8866C307.873 81.1902 308.263 81.3418 308.743 81.3418H325.519C326.197 81.3418 326.803 81.5874 327.337 82.0788C327.889 82.5702 328.165 83.1557 328.165 83.8354V86.131H308.155Z" fill="#8B4513"/>
<path d="M408.263 58.7097C408.263 56.4165 407.623 54.6313 406.343 53.3536C405.081 52.058 403.414 51.4102 401.342 51.4106C399.288 51.4103 397.621 52.058 396.341 53.3536C395.061 54.6313 394.421 56.4165 394.421 58.7097V82.7504H388.555C387.877 82.7504 387.271 82.5048 386.737 82.0136C386.221 81.5044 385.963 80.9188 385.963 80.257V58.7097C385.963 55.6384 386.594 52.9652 387.856 50.69C389.118 48.3968 390.785 46.6115 392.857 45.334C394.929 44.0384 397.252 43.3906 399.828 43.3906C402.404 43.3906 404.718 44.0384 406.772 45.334C408.844 46.6115 410.511 48.3968 411.773 50.69C413.053 52.9652 413.693 55.6384 413.693 58.7097V82.7504H408.263V58.7097Z" fill="#CD853F"/>
<path d="M456.263 86.131C452.235 86.131 448.703 85.1822 445.667 83.2846C442.631 81.369 440.315 78.7318 438.719 75.373C437.123 72.0142 436.325 68.146 436.325 63.7686C436.325 59.3911 437.123 55.5229 438.719 52.1641C440.315 48.8053 442.631 46.1861 445.667 44.3065C448.703 42.4089 452.235 41.46 456.263 41.46C460.291 41.46 463.823 42.4089 466.859 44.3065C469.895 46.1861 472.211 48.8053 473.807 52.1641C475.403 55.5229 476.201 59.3911 476.201 63.7686C476.201 68.146 475.403 72.0142 473.807 75.373C472.211 78.7318 469.895 81.369 466.859 83.2846C463.823 85.1822 460.291 86.131 456.263 86.131ZM456.263 82.049C458.911 82.049 461.262 81.4192 463.316 80.1594C465.37 78.8816 467.037 77.096 468.317 74.8028C469.597 72.4919 470.237 69.8007 470.237 66.7294C470.237 63.6582 469.597 60.985 468.317 58.7098C467.037 56.4167 465.37 54.6314 463.316 53.3538C461.262 52.0582 458.911 51.4103 456.263 51.411C453.615 51.4107 451.264 52.0586 449.21 53.3538C447.156 54.6314 445.489 56.4167 444.209 58.7098C442.929 60.985 442.289 63.6582 442.289 66.7294C442.289 69.8007 442.929 72.4919 444.209 74.8028C445.489 77.096 447.156 78.8816 449.21 80.1594C451.264 81.4192 453.615 82.049 456.263 82.049Z" fill="#CD853F"/>
<path d="M521.479 82.7504C521.479 83.4123 521.221 83.9979 520.705 84.5071C520.189 85.0163 519.583 85.2709 518.887 85.2709H513.021C512.343 85.2709 511.737 85.0163 511.203 84.5071C510.687 83.9979 510.429 83.4123 510.429 82.7504V70.1824H489.657V82.7504C489.657 83.4123 489.399 83.9979 488.883 84.5071C488.367 85.0163 487.761 85.2709 487.065 85.2709H481.199C480.521 85.2709 479.915 85.0163 479.381 84.5071C478.865 83.9979 478.607 83.4123 478.607 82.7504V42.4089C478.607 41.7468 478.865 41.1612 479.381 40.652C479.915 40.1428 480.521 39.8882 481.199 39.8882H487.065C487.761 39.8882 488.367 40.1428 488.883 40.652C489.399 41.1612 489.657 41.7468 489.657 42.4089V62.7464H510.429V42.4089C510.429 41.7468 510.687 41.1612 511.203 40.652C511.737 40.1428 512.343 39.8882 513.021 39.8882H518.887C519.583 39.8882 520.189 40.1428 520.705 40.652C521.221 41.1612 521.479 41.7468 521.479 42.4089V82.7504Z" fill="#CD853F"/>
<path d="M567.991 86.131C566.413 86.131 564.961 85.9214 563.635 85.5022C562.309 85.083 561.217 84.4182 560.359 83.5078C559.519 82.5794 559.099 81.3376 559.099 79.7826V50.5474H545.047C544.351 50.5474 543.745 50.3018 543.229 49.8106C542.713 49.3014 542.455 48.7158 542.455 48.0537V42.4089H559.099V34.2137C559.099 33.5516 559.357 32.966 559.873 32.4568C560.407 31.9476 561.013 31.693 561.691 31.693H566.959V42.4089H585.355C586.033 42.4089 586.639 42.6546 587.173 43.146C587.725 43.6374 588.001 44.223 588.001 44.9029V50.5474H566.959V79.6401C566.959 80.1495 567.109 80.5651 567.409 80.8866C567.709 81.1902 568.099 81.3418 568.579 81.3418H585.355C586.033 81.3418 586.639 81.5874 587.173 82.0788C587.725 82.5702 588.001 83.1557 588.001 83.8354V86.131H567.991Z" fill="#CD853F"/>
<g clip-path="url(#clip0_1_2)">
<path d="M92.7948 51.52C93.3324 50.9824 93.3324 50.1126 92.7948 49.575L84.3488 41.129C83.8112 40.5914 82.9414 40.5914 82.4038 41.129C81.8661 41.6666 81.8661 42.5364 82.4038 43.074L89.8773 50.5475L82.4038 58.021C81.8661 58.5586 81.8661 59.4284 82.4038 59.966C82.9414 60.5036 83.8112 60.5036 84.3488 59.966L92.7948 51.52ZM90.4998 51.92L91.8223 51.92L91.8223 49.175L90.4998 49.175L90.4998 51.92Z" fill="#D2691E"/>
<circle cx="59.5" cy="59.5" r="59.5" fill="url(#paint0_radial_1_2)"/>
<path d="M55.5 40C55.5 37.2386 57.7386 35 60.5 35C63.2614 35 65.5 37.2386 65.5 40V50.5H55.5V40Z" fill="#8B4513"/>
<path d="M45 45C45 42.2386 47.2386 40 50 40H55.5V50.5H45V45Z" fill="#8B4513"/>
<path d="M75 45C75 42.2386 72.7614 40 70 40H65.5V50.5H75V45Z" fill="#8B4513"/>
<path d="M35.5 55C35.5 52.2386 37.7386 50 40.5 50H45V60.5H35.5V55Z" fill="#CD853F"/>
<path d="M84.5 55C84.5 52.2386 82.2614 50 79.5 50H75V60.5H84.5V55Z" fill="#CD853F"/>
<path d="M45 75C45 77.7614 47.2386 80 50 80H55.5V69.5H45V75Z" fill="#8B4513"/>
<path d="M75 75C75 77.7614 72.7614 80 70 80H65.5V69.5H75V75Z" fill="#8B4513"/>
<path d="M55.5 84.5C55.5 87.2614 57.7386 89.5 60.5 89.5C63.2614 89.5 65.5 87.2614 65.5 84.5V69.5H55.5V84.5Z" fill="#8B4513"/>
<path d="M35.5 69.5C35.5 72.2614 37.7386 74.5 40.5 74.5C43.2614 74.5 45.5 72.2614 45.5 69.5V60.5H35.5V69.5Z" fill="#8B4513"/>
<path d="M84.5 69.5C84.5 72.2614 82.2614 74.5 79.5 74.5C76.7386 74.5 74.5 72.2614 74.5 69.5V60.5H84.5V69.5Z" fill="#8B4513"/>
<rect x="45" y="50.5" width="30" height="19" fill="#D2691E"/>
</g>
<defs>
<radialGradient id="paint0_radial_1_2" cx="0" cy="0" r="1" gradientUnits="userSpaceOnUse" gradientTransform="translate(59.5 59.5) rotate(90) scale(59.5)">
<stop stop-color="#F4A460"/>
<stop offset="1" stop-color="#DEB887"/>
</radialGradient>
<clipPath id="clip0_1_2">
<rect width="119" height="119" fill="white"/>
</clipPath>
</defs>
</svg>