<!-- Dollar Sign Icon for Cost-Effective -->
<svg width="48" height="48" viewBox="0 0 24 24" fill="none" xmlns="http://www.w3.org/2000/svg">
  <path d="M12 2V22M17 5H9.5C8.57 5 7.8 5.45 7.39 6.13C6.98 6.8 7.07 7.67 7.64 8.24C8.2 8.8 9.07 8.89 9.75 8.48C10.43 8.07 10.88 7.3 10.88 6.37H17M17 19H9.5C8.57 19 7.8 18.55 7.39 17.87C6.98 17.2 7.07 16.33 7.64 15.76C8.2 15.2 9.07 15.11 9.75 15.52C10.43 15.93 10.88 16.7 10.88 17.63H17" stroke="currentColor" stroke-width="2" stroke-linecap="round" stroke-linejoin="round"/>
  <path d="M7 12H17C18.1 12 19 11.1 19 10V8C19 6.9 18.1 6 17 6H7C5.9 6 5 6.9 5 8V10C5 11.1 5.9 12 7 12Z" fill="currentColor" opacity="0.3"/>
  <path d="M7 18H17C18.1 18 19 17.1 19 16V14C19 12.9 18.1 12 17 12H7C5.9 12 5 12.9 5 14V16C5 17.1 5.9 18 7 18Z" fill="currentColor" opacity="0.3"/>
</svg>